<svg width="32" height="32" viewBox="0 0 32 32" fill="none" xmlns="http://www.w3.org/2000/svg">
<path d="M31 22.25C31 28.25 25.55 31 16.1 31C6.6 31 1.2 28.25 1.2 22.25C1.2 13.45 31 13.45 31 22.25Z" fill="#E7A74F"/>
<path d="M30.9 18.1C30.9 24.1 25.5 26.85 16.05 26.85C6.65 26.85 1.2 24.1 1.2 18.1C1.25 9.35 30.9 9.35 30.9 18.1Z" fill="#BA8443"/>
<path d="M1.2 18.25C1.2 15.75 4.15 12.3 16.1 12.3C28.05 12.3 31 15.8 31 18.25C31 22.8 26.8 26.1 16.1 26.1C5.4 26.1 1.2 22.8 1.2 18.25Z" fill="#826046"/>
<path d="M1.5 15.65C1.5 13.15 4.4 9.7 16.1 9.7C27.8 9.7 30.7 13.2 30.7 15.65C30.7 20.2 26.6 23.5 16.1 23.5C5.6 23.5 1.5 20.2 1.5 15.65Z" fill="#68472C"/>
<path d="M1.59999 12.4C2.29999 10.9 4.14999 10.8 10.15 13.35C16.15 15.9 17.3 17.25 16.6 18.8C15.3 21.55 11.75 23.6 6.34999 21.3C0.949993 19 0.249993 15.2 1.59999 12.4Z" fill="#EF4D3C"/>
<path d="M2.09999 10.7C2.79999 9.2 4.64999 9.1 10.65 11.65C16.65 14.2 17.8 15.55 17.1 17.1C15.8 19.85 12.25 21.9 6.84999 19.6C1.44999 17.3 0.749993 13.45 2.09999 10.7Z" fill="#D33B23"/>
<path d="M14.65 17.25C14.25 15.65 15.65 14.5 22.1 13.1C28.55 11.7 30.3 12.1 30.7 13.75C31.45 16.7 29.95 20.35 24.15 21.6C18.4 22.85 15.35 20.2 14.65 17.25Z" fill="#EF4D3C"/>
<path d="M14 15.65C13.6 14.05 15 12.9 21.45 11.5C27.9 10.1 29.65 10.5 30.05 12.15C30.8 15.1 29.3 18.75 23.5 20C17.75 21.25 14.75 18.6 14 15.65Z" fill="#D33B23"/>
<path d="M4.85001 15.45L14.85 25.05L24.65 15.45H4.85001Z" fill="#FFE62E"/>
<path d="M30.35 12.95C30.35 12.95 30.8 14.65 30.35 15.15C29.95 15.6 28.7 15.1 28.15 15.5C27.65 15.85 27.8 17.2 27.2 17.5C26.65 17.8 25.6 16.95 25 17.2C24.45 17.4 24.25 18.75 23.65 18.95C23.05 19.1 22.15 18.1 21.55 18.2C20.95 18.3 20.55 19.6 19.9 19.7C19.3 19.8 18.55 18.65 17.9 18.7C17.3 18.75 16.7 19.95 16.05 19.95C15.4 19.95 14.85 18.7 14.2 18.7C13.55 18.65 12.85 19.8 12.2 19.7C11.55 19.6 11.15 18.35 10.55 18.2C9.9 18.05 9.05 19.1 8.45 18.95C7.85 18.75 7.65 17.45 7.1 17.2C6.5 16.95 5.4 17.8 4.9 17.5C4.3 17.2 4.45 15.85 3.95 15.5C3.4 15.1 2.15 15.6 1.75 15.15C1.3 14.65 1.75 12.95 1.75 12.95H30.35Z" fill="#8CC63E"/>
<path d="M31 11.7C31 14.95 24.35 16.55 16.1 16.55C7.85 16.55 1.2 14.95 1.2 11.7C1.2 5.8 7.85 1 16.1 1C24.35 1 31 5.8 31 11.7Z" fill="#E7A74F"/>
<path d="M8.15 7.2L7.35 7.95L6.6 7.2L7.35 6.45L8.15 7.2ZM11.85 6L11.1 6.75L10.35 6L11.1 5.25L11.85 6ZM14 9.4L13.2 10.15L12.45 9.4L13.2 8.65L14 9.4ZM16.6 6.7L16.1 7.2L15.6 6.7L16.1 6.2L16.6 6.7ZM25.95 8.65L25.45 9.15L24.95 8.65L25.45 8.15L25.95 8.65ZM29.05 9.15L28.55 9.65L28.05 9.15L28.55 8.65L29.05 9.15ZM23.2 5.5L22.7 6L22.2 5.5L22.7 5L23.2 5.5ZM7.95 4.85L7.45 5.35L6.95 4.85L7.45 4.35L7.95 4.85ZM5.25 7.2L4.75 7.7L4.25 7.2L4.75 6.7L5.25 7.2ZM8.4 10.55L7.9 11.05L7.35 10.55L7.9 10.05L8.4 10.55ZM14.25 2.85L13.75 3.35L13.2 2.85L13.75 2.35L14.25 2.85ZM19 2.35L18.5 2.85L18 2.35L18.5 1.85L19 2.35ZM11.1 3.35L10.6 3.85L10.1 3.35L10.6 2.85L11.1 3.35ZM25.45 4.55L24.95 5.05L24.45 4.55L24.95 4.05L25.45 4.55ZM20 10.85L19.25 11.6L18.5 10.85L19.25 10.1L20 10.85ZM18.8 7L18.05 7.75L17.3 7L18.05 6.25L18.8 7ZM21.6 4.1L20.85 4.85L20.1 4.1L20.85 3.35L21.6 4.1ZM23.8 7.35L23.05 8.1L22.25 7.35L23.05 6.6L23.8 7.35ZM27 6.25L26.25 7L25.45 6.25L26.25 5.5L27 6.25ZM24.55 10.65L23.8 11.4L23.05 10.65L23.8 9.9L24.55 10.65ZM6.25 9.35L5.5 10.1L4.75 9.35L5.5 8.6L6.25 9.35Z" fill="#FFC17A"/>
</svg>
