<svg width="33" height="32" viewBox="0 0 33 32" fill="none" xmlns="http://www.w3.org/2000/svg">
<path d="M12.75 21.25C11.75 21.4 10.75 21.6 9.8 21.75C8.6 14.8 8.6 7.7 9.8 0.7C10.8 0.9 11.75 1.05 12.75 1.25C11.55 7.9 11.55 14.65 12.75 21.25Z" fill="#FFC800"/>
<path d="M15.5 21.25C16.5 21.1 17.5 20.95 18.45 20.8C16.45 15 15.45 8.7 15.6 2.2C14.6 2.55 13.55 2.95 12.55 3.35C12.55 9.6 13.6 15.65 15.5 21.25Z" fill="#FFD41F"/>
<path d="M8.7 19.75C9.7 19.6 10.65 19.4 11.65 19.25C9.75 13.65 8.75 7.55 8.95 1.3C7.9 1.8 6.85 2.3 5.85 2.85C5.9 8.75 6.9 14.45 8.7 19.75ZM20.45 21C21.4 20.85 22.35 20.65 23.3 20.5C23.8 14.7 25.35 9.3 27.7 4.5C26.6 4.45 25.5 4.45 24.4 4.4C22.15 9.5 20.8 15.1 20.45 21Z" fill="#FFE62E"/>
<path d="M7.15 20.2C8 20.05 8.85 19.9 9.65 19.75C7.2 16.15 5.3 11.8 4.3 6.95C3.35 7.6 2.4 8.3 1.5 9C2.8 13.25 4.75 17 7.15 20.2ZM23.2 19.25C24.15 19.1 25.05 18.95 26 18.75C27.1 13.8 29 9.35 31.5 5.6C30.65 5.1 29.8 4.55 28.95 4C26.2 8.35 24.2 13.5 23.2 19.25ZM19.7 21.25C18.7 21.4 17.7 21.6 16.75 21.75C15.6 15.1 15.6 8.3 16.75 1.7C17.75 1.9 18.7 2.05 19.7 2.25C18.6 8.55 18.6 14.95 19.7 21.25Z" fill="#FFE62E"/>
<path d="M24.8 19.75C23.8 19.9 22.8 20.1 21.85 20.25C20.8 14.3 20.8 8.25 21.85 2.3C22.8 2.75 23.75 3.25 24.65 3.65C23.85 9.05 23.9 14.45 24.8 19.75Z" fill="#FFC800"/>
<path d="M13.4 20.75C12.4 20.55 11.45 20.35 10.45 20.2C11.45 15.05 11.45 9.75 10.45 4.55C11.55 5.1 12.7 5.65 13.8 6.3C14.45 11.1 14.3 15.95 13.4 20.75Z" fill="#FFE62E"/>
<path d="M9.55 20.25C8.6 20.05 7.65 19.9 6.7 19.7C6.1 13.8 4.3 8.35 1.65 3.7C2.85 3.65 4 3.55 5.15 3.5C7.6 8.5 9.2 14.15 9.55 20.25ZM20.2 19.7C19.45 19.55 18.75 19.4 18 19.3C21.7 15.75 24.85 10.95 26.75 5.15C27.65 5.8 28.5 6.45 29.35 7.2C27.05 12.25 23.8 16.5 20.2 19.7Z" fill="#FFC800"/>
<path d="M20.8 19.05C19.8 19.2 18.85 19.4 17.85 19.55C17.65 14.45 18.3 9.45 19.8 4.75C20.6 5.5 21.4 6.2 22.25 6.85C21.15 10.75 20.65 14.85 20.8 19.05ZM11.4 17.8C10.45 17.95 9.45 18.15 8.5 18.3C6.7 15 5.45 11.2 4.95 7.1C6 7.45 7.05 7.75 8.1 8.05C8.6 11.65 9.8 14.95 11.4 17.8Z" fill="#FFD41F"/>
<path d="M15.45 22C14.5 21.75 13.55 21.5 12.55 21.2C12.15 17.45 12.35 13.75 13.1 10.1C13.8 10.8 14.55 11.45 15.3 12.05C14.9 15.35 14.9 18.7 15.45 22Z" fill="#FFC800"/>
<path d="M27.3 20C26.45 20.15 25.55 20.3 24.7 20.45C25.55 16.05 27.25 12.05 29.45 8.75C30.1 9.45 30.75 10.1 31.45 10.7C29.6 13.4 28.15 16.5 27.3 20Z" fill="#FFD41F"/>
<path d="M20.6 20.8C19.6 20.65 18.6 20.5 17.65 20.35C19.4 16.75 20.5 12.65 20.7 8.3C21.75 8.9 22.75 9.6 23.75 10.35C23.25 14.1 22.15 17.65 20.6 20.8ZM25.85 18.75C25.15 18.65 24.45 18.6 23.8 18.5C25.15 15.65 25.95 12.4 26.05 8.95C26.75 9.45 27.5 9.95 28.2 10.55C27.85 13.5 27 16.25 25.85 18.75Z" fill="#FFE62E"/>
<path d="M23.8 13.95C23.8 16.65 20.5 18.8 16.5 18.8C12.45 18.8 9.2 16.65 9.2 13.95H2.6L4.85 29C9.2 32 23.75 32 28.05 29L30.3 13.95H23.8Z" fill="#EF4D3C"/>
<path d="M17.05 27.85L16.75 28C16.7 27.95 16.65 27.9 16.6 27.9H16.4C16.35 27.9 16.25 27.95 16.25 28L15.95 27.85L15.2 27.45V29.15L15.95 28.75L16.25 28.6C16.3 28.65 16.35 28.7 16.4 28.7H16.6C16.65 28.7 16.75 28.65 16.75 28.6L17.05 28.75L17.8 29.15V27.45L17.05 27.85ZM15.35 25.5C15.45 25.7 15.65 25.85 15.85 25.95C16.05 26.05 16.25 26.1 16.5 26.1C16.7 26.1 16.95 26.05 17.15 25.95C17.35 25.85 17.5 25.7 17.65 25.55C17.7 25.75 17.55 26 17.35 26.2C17.15 26.35 16.85 26.5 16.5 26.5C16.2 26.5 15.9 26.4 15.65 26.2C15.45 25.95 15.3 25.7 15.35 25.5Z" fill="#AB2D1F"/>
<path d="M19.7 23.25V23.2C19.7 23.15 19.7 23.15 19.65 23.15C19.6 23.15 19.55 23.1 19.5 23.1C19.45 23.1 19.45 23.1 19.4 23.05C18.9 21.9 17.8 21.1 16.45 21.1C15.15 21.1 14 21.9 13.5 23.05C13.45 23.05 13.4 23.05 13.4 23.1C13.35 23.1 13.3 23.15 13.25 23.15C13.2 23.15 13.2 23.15 13.2 23.2V23.25C13.2 23.35 13.2 23.3 13.25 23.35C13.3 23.35 13.3 23.4 13.3 23.4C13.2 23.65 13.2 23.95 13.2 24.25C13.2 26 14.65 27.45 16.4 27.45C18.15 27.45 19.6 26 19.6 24.25C19.6 23.95 19.55 23.65 19.5 23.4L19.55 23.35C19.7 23.35 19.7 23.4 19.7 23.25ZM16.5 21.5C17.6 21.5 18.5 22.1 19 23C18.6 22.95 18.2 22.95 17.95 23C17.55 23.05 17.2 23.1 16.95 23.25C16.7 23.4 16.3 23.4 16.05 23.25C15.8 23.1 15.45 23 15.05 23C14.8 23 14.4 22.95 14 23C14.45 22.1 15.4 21.5 16.5 21.5ZM16.5 27.15C14.95 27.15 13.7 25.9 13.7 24.35V24.3C13.8 24.7 14 24.9 14.35 25.05C14.7 25.2 15.1 25.2 15.45 25.05C15.65 24.95 15.8 24.85 15.95 24.65C16.2 24.3 16.1 24.1 16.25 23.8C16.35 23.55 16.65 23.55 16.75 23.8C16.85 24.1 16.8 24.3 17.05 24.65C17.2 24.85 17.35 24.95 17.55 25.05C17.9 25.2 18.3 25.2 18.65 25.05C19 24.9 19.2 24.7 19.3 24.3V24.35C19.3 25.85 18.05 27.15 16.5 27.15Z" fill="#AB2D1F"/>
</svg>
