<svg width="33" height="32" viewBox="0 0 33 32" fill="none" xmlns="http://www.w3.org/2000/svg">
<path d="M25.9 2.2C28.8 5.1 25.9 12.7 19.45 19.2C13 25.7 5.35 28.55 2.45 25.65C-1.85 21.35 6.55 19.25 13 12.75C19.45 6.25 21.6 -2.15 25.9 2.2Z" fill="#D9A559"/>
<path d="M13.85 13.6C20.05 7.35 22.25 -0.6 26.2 2.55C26.1 2.4 26 2.3 25.9 2.15C21.6 -2.15 19.5 6.25 13 12.7C6.5 19.2 -1.9 21.3 2.45 25.6C2.55 25.7 2.7 25.8 2.85 25.9C-0.349999 22 7.6 19.8 13.85 13.6Z" fill="#FBBF67"/>
<path d="M27.55 2.6C30.45 5.5 26.55 12.75 19.65 19.65C12.75 26.55 5.45 30.5 2.55 27.6C-0.799999 24.25 7.75 21.6 14.65 14.7C21.6 7.8 24.2 -0.75 27.55 2.6Z" fill="#C94747"/>
<path d="M30.15 6.45C33 9.3 30.1 16.9 23.6 23.4C17.1 29.9 9.55 32.75 6.7 29.9C3.85 27.05 11.2 23.9 17.7 17.45C24.15 10.95 27.25 3.55 30.15 6.45Z" fill="#FBBF67"/>
<path opacity="0.5" d="M27.5 6.25C27.85 6.05 28.15 5.85 28.5 5.8C28.65 4.45 28.35 3.35 27.6 2.55C26.95 1.9 26.3 1.7 25.65 1.85C27.4 3 27.85 4.55 27.5 6.25ZM6.85 26.75C2.7 28.2 2 25.2 2 25.2C1.65 26 1.75 26.8 2.55 27.6C3.4 28.45 4.6 28.7 6.05 28.5C6.05 27.95 6.35 27.4 6.85 26.75Z" fill="#3E4347"/>
<path d="M22.1 21.85C12.7 31.25 7 29.85 6.5 29.7C6.55 29.8 6.65 29.85 6.7 29.95C9.55 32.8 17.15 29.9 23.65 23.4C29.75 17.25 32.7 10.15 30.55 6.95C31.25 9.65 29.7 14.2 22.1 21.85Z" fill="#D9A559"/>
<path opacity="0.5" d="M7.45 22.45C8.55 22.7 9.4 23.15 9.3 23.4C9.2 23.7 8.25 23.7 7.15 23.45C6.05 23.2 5.2 22.75 5.3 22.5C5.35 22.2 6.3 22.2 7.45 22.45ZM10.35 20.35C11.45 20.6 12.3 21.05 12.2 21.3C12.1 21.55 11.15 21.6 10.05 21.3C8.95 21.05 8.1 20.6 8.2 20.35C8.3 20.1 9.25 20.1 10.35 20.35ZM13.7 17.85C14.8 18.1 15.65 18.55 15.55 18.8C15.45 19.05 14.5 19.1 13.4 18.85C12.3 18.6 11.45 18.15 11.55 17.9C11.65 17.6 12.6 17.6 13.7 17.85ZM16.65 14.9C17.75 15.15 18.6 15.6 18.5 15.85C18.4 16.15 17.45 16.15 16.35 15.9C15.25 15.65 14.4 15.2 14.5 14.95C14.6 14.7 15.55 14.65 16.65 14.9ZM20 11.55C21.1 11.8 21.95 12.25 21.85 12.5C21.75 12.75 20.8 12.8 19.7 12.55C18.6 12.3 17.75 11.85 17.85 11.6C17.9 11.3 18.9 11.3 20 11.55ZM22.95 7.8C24.05 8.05 24.9 8.5 24.8 8.75C24.7 9 23.75 9.05 22.65 8.8C21.55 8.55 20.7 8.1 20.8 7.85C20.85 7.55 21.8 7.55 22.95 7.8Z" fill="#3E4347"/>
<path d="M5.5 26.05C5.9 23.85 7.95 24.7 8.9 23.2C9.4 22.45 9.65 21.6 10.05 20.85C10.4 20.15 11.85 20.4 12.6 20.15C14.45 19.5 13.65 16 15.9 16.2C16.95 16.3 18.3 15.8 18.45 14.6C18.55 13.95 18.55 13.4 18.45 12.8C18.25 11 20.6 11.3 21.45 10.85C22.65 10.2 23.15 9.45 22.75 8.1C22.35 6.7 24.45 8.2 26.3 6.35C27.2 5.45 26.55 3.9 26.05 3.3C25.3 2.45 24.7 3.4 24.8 4.55C24.85 5.35 23.3 5 22.65 5C22.25 5 21.7 5.1 21.4 5.4C20.5 6.35 21.6 7.4 21 8.5C20.25 9.85 18.4 8.95 17.2 10.7C16 12.4 16.95 14.55 15.3 14.4C14.1 14.3 13.3 15.5 12.75 16.4C12.2 17.35 11.95 18.8 10.45 18.65C9.95 18.6 9.6 18.8 9.2 19.05C7.6 20.15 8.3 21.95 6.1 22.55C4.35 23 4 23.9 3.65 25.65C3.6 26.75 5.3 27.2 5.5 26.05Z" fill="#FFCE31"/>
</svg>
