<svg width="32" height="32" viewBox="0 0 32 32" fill="none" xmlns="http://www.w3.org/2000/svg">
<path d="M31 14.15H1C1 14.15 1.9 22.45 3.45 24.75C5.2 27.3 9.35 31 16 31C22.65 31 26.8 27.3 28.55 24.75C30.1 22.45 31 14.15 31 14.15Z" fill="#E0DAC6"/>
<path d="M31 14.15C31 17 24.3 19.3 16 19.3C7.7 19.35 1 17 1 14.15C1 11.3 7.7 9 16 9C24.3 9 31 11.3 31 14.15Z" fill="#F9F3D9"/>
<path d="M30.5 14.05C30.5 16.65 24 18.75 16 18.75C8 18.75 1.5 16.65 1.5 14.05C1.5 11.45 8 9.35 16 9.35C24 9.4 30.5 11.5 30.5 14.05Z" fill="#E0DAC6"/>
<path d="M16 11C8.85 11 2.9 12.65 1.7 14.85C2.9 17.05 8.85 18.75 16 18.75C23.15 18.75 29.1 17.1 30.3 14.85C29.1 12.7 23.15 11 16 11Z" fill="#F2B200"/>
<path d="M16 23.4C22.6 23.4 28.15 21.8 30.2 19.55C30.45 18.35 30.6 17.15 30.75 16.2C29.45 18.6 23.35 20.4 16 20.4C8.65 20.4 2.55 18.6 1.25 16.2C1.4 17.15 1.55 18.35 1.8 19.55C3.85 21.8 9.4 23.4 16 23.4Z" fill="#B3682A"/>
<path d="M23.8 17.05L23.7 15.8L24.1 15.75C26.1 15.6 26.9 14.85 26.9 14.3C26.95 13.65 26.2 13.05 25.1 12.85C24.8 12.8 24.5 12.75 24.2 12.75C23.2 12.75 22.4 13.05 21.4 13.4C20.1 13.9 18.65 14.4 16.5 14.4C15.25 14.4 13.85 14 12.4 13.55C10.95 13.1 9.4 12.65 8.05 12.65C7.1 12.65 6.3 12.85 5.6 13.3C5.2 13.55 4.6 14 4.75 14.4C5.05 15.05 6.85 15.7 8.4 15.7C8.6 15.7 8.75 15.7 8.95 15.65L9.3 15.6L9.5 16.85L9.05 17C8.85 17 8.65 17.05 8.4 17.05C6.75 17.05 4.15 16.4 3.55 15C3.35 14.5 3.2 13.45 4.9 12.4C5.8 11.85 6.85 11.55 8.05 11.55C9.65 11.55 11.35 12.05 12.8 12.5C14.15 12.9 15.45 13.3 16.5 13.3C18.4 13.3 19.75 12.8 20.95 12.35C21.95 12 23 11.6 24.2 11.6C24.6 11.6 24.95 11.65 25.35 11.7C27.1 12.05 28.25 13.15 28.2 14.45C28.15 15.55 27.05 16.85 24.2 17.05H23.8Z" fill="#FFE299"/>
<path d="M19.85 16.9C18.7 16.9 17.55 16.65 16.4 16.1C13.85 14.95 11.8 14.7 10.5 14.7C8.9 14.7 8 15.05 7.65 15.2L7.35 15.35L6.75 14.25L7.1 14.1C7.55 13.9 8.8 13.4 10.9 13.5C12.85 13.55 14.9 14.05 16.95 15C17.95 15.45 18.9 15.7 19.85 15.7C21.5 15.7 22.95 14.95 23.85 13.65L24.05 13.35L25.15 14L24.9 14.35C24 15.65 22.7 16.5 21.15 16.8C20.75 16.85 20.3 16.9 19.85 16.9Z" fill="#FFE299"/>
<path d="M16.55 17.7L16.25 17.55C15.4 17.15 14.55 16.95 13.6 16.95C12.05 16.95 10.95 17.55 10.95 17.55L10.65 17.7L9.95 16.65L10.3 16.45C10.45 16.35 11.75 15.7 13.55 15.7C14.65 15.7 15.75 15.95 16.75 16.45L17.1 16.6L16.55 17.7ZM11.2 6.3L10.6 5.15L10.95 4.95C12.1 4.35 12.65 2.15 12.65 2.1L12.75 1.75L14 2.1L13.9 2.45C13.85 2.55 13.2 5.2 11.55 6.1L11.2 6.3ZM16.6 7.1L15.55 6.4L15.75 6.1C15.75 6.1 16.55 4.85 16.75 3.7L16.8 3.35L18.1 3.55L18 3.85C17.75 5.35 16.85 6.75 16.8 6.8L16.6 7.1ZM14.6 6.6L13.55 5.9L13.75 5.6C13.75 5.6 14.55 4.35 14.75 3.2L14.8 2.85L16.1 3L16.05 3.35C15.8 4.85 14.9 6.25 14.85 6.3L14.6 6.6Z" fill="#FFE299"/>
<path d="M31 6L10.7 2.15L10.6 2.7L30.8 7.55L31 6ZM29.85 10.55L10.55 3.25L10.35 3.75L29.35 12L29.85 10.55Z" fill="#D3976E"/>
<path d="M12.6 6.2C12.2 6.2 11.85 6 11.55 5.65C10.8 4.75 11.15 3 11.6 2.1C12 1.2 12.5 1 12.85 1C13.2 1 13.5 1.15 13.7 1.4C14 1.8 13.95 2.3 13.9 2.45L12.8 2.4C12.8 2.45 12.7 2.65 12.7 2.65C12.35 3.5 12.3 4.55 12.5 4.85C12.55 4.9 12.55 4.9 12.6 4.9C12.6 4.9 12.65 4.95 12.7 4.8L13.9 5.25C13.65 5.8 13.25 6.1 12.75 6.2H12.6Z" fill="#FFE299"/>
<path d="M14.75 6.95C14.35 6.95 13.95 6.75 13.7 6.4C12.65 5 13.25 3.15 13.85 2.3C14.3 1.7 14.7 1.55 14.95 1.55C15.05 1.55 15.15 1.55 15.2 1.6C15.55 1.75 16.1 2 16 3.15L14.85 2.95C14.55 3.55 14.3 5.05 14.75 5.7L15.9 6.2C15.7 6.65 15.35 6.95 14.9 7C14.8 6.95 14.8 6.95 14.75 6.95Z" fill="#FFE299"/>
<path d="M16.75 12.55C17.15 11.5 16.15 9.75 15.8 8.9C15.15 7.3 15.25 3.05 16.45 2.25C16.8 2 17.2 1.95 17.55 2.15C17.9 2.3 18.25 2.9 18.15 3.6L17 3.35C16.7 4.25 16.5 7.4 17.1 8.75C17.55 9.7 18.4 11.2 17.9 12.8C17.55 13.8 16.45 13.3 16.75 12.55Z" fill="#FFE299"/>
</svg>
