<svg width="32" height="32" viewBox="0 0 32 32" fill="none" xmlns="http://www.w3.org/2000/svg">
<path d="M29 24.6C29 28.15 23.15 31 16 31C8.8 31 3 28.15 3 24.6C3 21.05 8.8 18.2 16 18.2C23.15 18.2 29 21.05 29 24.6Z" fill="#94989B"/>
<path d="M31 22C31 26.3 24.3 29.85 16 29.85C7.7 29.85 1 26.35 1 22C1 17.7 7.7 14.15 16 14.15C24.3 14.15 31 17.65 31 22Z" fill="#C7D7D7"/>
<path d="M28.35 21.35C28.35 24.25 22.8 26.55 16 26.55C9.2 26.55 3.65 24.2 3.65 21.35C3.65 18.45 9.2 16.15 16 16.15C22.8 16.1 28.35 18.45 28.35 21.35Z" fill="#94989B"/>
<path d="M25.1 25.25C23.7 25.5 23.45 27.1 19.4 26.7C17.5 26.5 16.4 27.1 14.05 27.3C11.7 27.5 -0.900002 25.1 4.2 19.35C9.25 13.6 28.4 16.25 28.6 19.95C28.8 23.7 26.2 25.05 25.1 25.25Z" fill="#D3976E"/>
<path d="M4.2 9.7C3.75 10 4.35 10 4.35 10C4.35 10 9.45 8.25 9.7 8.75C9.95 9.25 4.55 10.75 4.65 11.35C4.75 11.95 10.15 9.65 10.25 10.15C10.4 10.65 5.35 12.55 5.35 12.55C5.35 12.55 4.95 12.95 5.45 12.9C11.95 12.1 14 10.15 14 10.15C14 10.15 14.45 9.8 14.3 9.35C14.3 9.3 28.5 4.25 30.4 3.55C31.35 3.2 30.35 0.7 29.45 1.05C27.5 1.7 13.3 6.85 13.3 6.85C13.15 6.4 12.55 6.4 12.55 6.4C12.55 6.4 9.7 6.2 4.2 9.7Z" fill="#839391"/>
<path d="M28.8 19.9C28.65 18.85 27.45 17.9 25.25 17.1C23.95 16.05 22.1 15.75 20.95 15.65C19.9 15.6 18.85 15.65 17.85 15.85C17.4 15.9 16.9 15.4 16.5 15.55C14.35 14.95 12.4 16.05 11 16.05C9.5 16.05 3.5 17.05 3.55 20.15C3.3 20.45 2 21.5 4 22.3C3.5 22.85 3.4 23.4 3.45 23.75C3.55 24.55 4.2 25.3 5.45 25.9C7.3 26.8 8.9 27.1 10.15 27.1C12 27 12.9 28.9 17 28.5L16.5 27.5C16.45 27.5 15 27.5 13.5 26.5C13.55 26.5 22.4 25.9 23.5 25.75C26 25.5 27.8 23.45 28 22.5C28.15 21.8 28.9 20.45 28.8 19.9ZM13.15 16.9C13.3 16.9 10.2 18.2 8.5 19L8.8 17.7H8.85C10.05 17.3 11.5 17.05 13.15 16.9ZM21.85 24.85C21.85 24.85 21.25 24.2 21.3 24.1C21.95 24 22.55 23.9 23.15 23.75C22.9 24.25 22.45 24.6 21.85 24.85ZM21.8 24.85C21.75 24.85 21.75 24.85 21.7 24.9C21.7 24.9 21.75 24.9 21.8 24.85ZM12.5 22.15C12.7 22.2 16.85 23.15 18.4 23.4C17.5 24 14.5 24.5 12.5 22.15ZM8 25.5C8 25.5 6.95 24.05 7 23.5C7.35 23.8 8.55 24.15 9 24.25C9.05 24.35 9.8 25.7 10 26C9 26 8 25.5 8 25.5ZM8.55 21.9C8.55 22.25 8.55 22.6 8.65 23C7.75 22.8 7 22.45 6.5 22C7 21.85 7.7 21.8 8.55 21.9ZM19.5 16.5C22.5 17.5 24.4 18.9 24.5 19C24.4 19.2 24.6 19.8 24.5 20C24.1 19.8 21 17.5 19 17C19.35 16.95 19.5 16.5 19.5 16.5ZM24 22C24.25 21.8 25.5 20.5 25.5 20.5H26.5C26.8 20.5 25.15 22.3 25 22.5C24.85 22.45 24.15 22.05 24 22ZM23.55 24.1C23.65 23.95 23.7 23.8 23.75 23.65C24 23.6 24.25 23.5 24.5 23.45C24.65 23.7 24.8 23.9 25 24.15C24.6 24.35 24.1 24.55 23.55 24.75C23.3 24.85 23.05 24.9 22.85 25C23.1 24.7 23.4 24.45 23.55 24.1ZM5.95 20.1C5.8 20.3 5.7 20.45 5.65 20.65C5.35 20.6 5.05 20.5 4.75 20.4C4.55 20.3 4.45 20.25 4.3 20.15C4.7 19.75 5.25 19.35 5.95 18.95V20.1ZM5.5 23.5C5.55 23.3 5.7 23.1 5.95 22.9C5.8 23.6 6.05 24.35 6.6 25.05C6.55 25.05 6.5 25 6.5 25C5.75 24.5 5.45 23.9 5.5 23.5ZM9.5 21.9C9.95 22 12.45 23.4 12.95 23.55C12.5 23.55 10.5 23.5 9.5 23C9.4 22.65 9.4 22.3 9.5 21.9ZM20.15 24.2C20.1 24.4 20.15 24.55 20.25 24.7C20.45 25 19.85 25.1 19.1 24.7C18.85 24.55 18.75 24.4 18.7 24.25C19.15 24.3 19.65 24.25 20.15 24.2ZM25.9 23.6C25.8 23.45 25.65 23.3 25.5 23.1C25.65 23.05 25.8 23 25.95 22.9C26.2 22.95 26.35 23.05 26.45 23.1C26.35 23.25 26.15 23.4 25.9 23.6ZM10.75 25.1C10.4 24.95 10.25 24.6 10.05 24.35C13.5 24 17.6 25.3 18 25.5C18.05 25.55 13 26 10.75 25.1ZM27.55 21.4C28 20 26.05 18.55 26 18.5C26.5 18.5 28.5 19.5 27.55 21.4Z" fill="#FFE299"/>
<path d="M6.5 17.5V10.15C6.5 9.95 6.2 9.8 5.9 9.8C5.6 9.8 5.3 9.95 5.3 10.15V18L6.5 17.5ZM8 21V7.6C8 7.4 7.7 7.25 7.4 7.25C7.1 7.25 6.8 7.4 6.8 7.6V21H8ZM9.45 13.45C9.8 13.45 10.05 13.3 10.05 13.1V6.7C10.05 6.5 9.75 6.35 9.45 6.35C9.15 6.35 8.85 6.5 8.85 6.7V13.05C8.85 13.3 9.15 13.45 9.45 13.45Z" fill="#FFE299"/>
<path d="M7.6 20.55C8.1 21.55 8.85 20.95 9.2 22.05C9.55 23.15 10.4 21.95 11.15 22.6C11.9 23.25 13.9 22.9 14.75 23.05C15.6 23.2 15.7 22.6 16.7 22.9C17.7 23.25 17.55 21.95 19.9 22.8C20.65 23.1 20.45 21.95 21.7 22.25C22.95 22.55 22.05 21.3 23.6 21.4C25.15 21.5 22.4 18.25 21.05 18.65C19.7 19.05 18.05 16.4 16.05 16.4C11.9 16.5 6.9 19.3 7.6 20.55Z" fill="#EC6430"/>
<path d="M10.75 18.25L10.4 19L10.75 19.75L11.1 19L10.75 18.25ZM12.25 17L12 17.5L12.25 18L12.5 17.5L12.25 17ZM13.75 18.5L13.5 19L13.75 19.5L14 19L13.75 18.5ZM14.25 16.25L13.9 17L14.25 17.75L14.6 17L14.25 16.25ZM15.75 17.75L15.4 18.5L15.75 19.25L16.1 18.5L15.75 17.75ZM17.25 16.5L17 17L17.25 17.5L17.5 17L17.25 16.5ZM18.75 18.5L18.5 19L18.75 19.5L19 19L18.75 18.5ZM20.25 18.25L19.9 19L20.25 19.75L20.6 19L20.25 18.25ZM22.25 19.5L22 20L22.25 20.5L22.5 20L22.25 19.5ZM17.25 19.5L17 20L17.25 20.5L17.5 20L17.25 19.5ZM15.25 20.5L15 21L15.25 21.5L15.5 21L15.25 20.5ZM12.25 19.5L12 20L12.25 20.5L12.5 20L12.25 19.5ZM9.25 19L9 19.5L9.25 20L9.5 19.5L9.25 19Z" fill="#8CC63E"/>
</svg>
