<svg width="33" height="32" viewBox="0 0 33 32" fill="none" xmlns="http://www.w3.org/2000/svg">
<path d="M31.4 23.55C31.35 11.35 21 1.05 8.8 1L1.4 31L31.4 23.55Z" fill="#F6DA77"/>
<path d="M27.5 24.5L28.55 24.3C28.05 14.8 21.25 4.85 8.05 3.85L7.9 4.85C18 6.15 26.25 14.35 27.5 24.5Z" fill="#860D16"/>
<path d="M28.5 24.3L31.35 23.6C31.4 11.4 21 1 8.7 1L8 3.85C19.75 4.95 27.4 12.65 28.5 24.3Z" fill="#C98E52"/>
<path d="M7 20.85C6.15 20.85 5.4 20.55 4.8 19.95C4.55 19.7 4.55 19.3 4.8 19.1C5.05 18.85 5.45 18.85 5.65 19.1C6.35 19.8 7.6 19.8 8.3 19.1C8.65 18.75 8.85 18.3 8.85 17.8C8.85 17.3 8.65 16.85 8.3 16.5C8.05 16.25 8.05 15.85 8.3 15.65C8.55 15.4 8.95 15.4 9.15 15.65C9.75 16.25 10.05 17 10.05 17.85C10.05 18.7 9.75 19.45 9.15 20.05C8.6 20.5 7.8 20.85 7 20.85ZM19.55 10.95V11.2C19.5 11.35 19.45 11.45 19.3 11.55C19.15 11.65 19 11.65 18.9 11.6C18.5 11.5 18.1 11.6 17.75 11.8C17.4 12 17.15 12.35 17.05 12.75C16.85 13.55 17.4 14.4 18.2 14.6C18.5 14.65 18.7 15 18.6 15.25C18.55 15.55 18.25 15.75 17.95 15.65C16.95 15.4 16.2 14.65 15.95 13.65C15.85 13.25 15.85 12.85 15.95 12.5C16.1 11.8 16.55 11.25 17.15 10.85C17.75 10.45 18.45 10.35 19.15 10.5C19.3 10.6 19.5 10.75 19.55 10.95ZM22.2 25.45H21.95C21.8 25.4 21.7 25.35 21.65 25.2C21.6 25.1 21.55 24.95 21.6 24.8C21.7 24.45 21.65 24.05 21.45 23.7C21.25 23.35 20.95 23.1 20.55 23C19.8 22.8 18.95 23.3 18.75 24C18.7 24.25 18.35 24.45 18.1 24.35C17.8 24.25 17.65 24 17.75 23.7C18 22.8 18.75 22.05 19.7 21.9C20.05 21.85 20.45 21.85 20.8 21.95C21.45 22.1 22 22.55 22.3 23.1C22.65 23.7 22.7 24.35 22.55 25C22.55 25.25 22.4 25.4 22.2 25.45Z" fill="#83BF4F"/>
<path d="M18.8 18.1C19.5 20.15 18.4 22.35 16.3 23.05C14.2 23.75 11.95 22.65 11.3 20.6C10.6 18.55 11.7 16.35 13.8 15.65C15.85 14.95 18.1 16.05 18.8 18.1ZM25.05 18.5C25.45 19.75 24.8 21.05 23.55 21.5C22.3 21.9 20.95 21.25 20.55 20C20.15 18.75 20.8 17.45 22.05 17C23.25 16.6 24.6 17.25 25.05 18.5ZM14.75 9.5C15.3 11.15 14.4 13 12.7 13.55C11 14.1 9.15 13.2 8.6 11.55C8.05 9.9 8.95 8.05 10.65 7.5C12.35 6.95 14.2 7.85 14.75 9.5ZM17.45 27L12.6 28.2C12.15 26.9 13.05 25.35 14.35 25C15.95 24.6 17 25.75 17.45 27ZM10.05 23.5C10.65 25.2 9.7 27.1 7.95 27.65C6.2 28.25 4.3 27.3 3.7 25.55C3.1 23.85 4.05 21.95 5.8 21.4C7.55 20.85 9.45 21.8 10.05 23.5Z" fill="#B21725"/>
<path d="M8 3.85C10.65 3.9 13.3 4.4 15.8 5.4C18.3 6.35 20.65 7.85 22.55 9.8C24.45 11.7 25.95 14.05 26.95 16.55C27.95 19.05 28.45 21.7 28.5 24.35C28.05 21.75 27.35 19.2 26.25 16.85C25.15 14.5 23.7 12.3 21.85 10.5C20.05 8.65 17.85 7.2 15.5 6.15C13.15 5 10.6 4.3 8 3.85Z" fill="#E0A763"/>
<path d="M8.647 6.718L9.637 5.728L10.627 6.718L9.637 7.708L8.647 6.718ZM15.11 9.522L16.1 8.532L17.09 9.522L16.1 10.512L15.11 9.522ZM6.704 13.224L7.694 12.234L8.684 13.224L7.694 14.214L6.704 13.224ZM10.124 16.0675L11.114 15.0775L12.104 16.0675L11.114 17.0575L10.124 16.0675ZM19.0225 16.195L20.0125 15.205L21.0025 16.195L20.0125 17.185L19.0225 16.195ZM24.762 23.2705L25.752 22.2805L26.742 23.2705L25.752 24.2605L24.762 23.2705ZM10.0585 22.326L11.0485 21.336L12.0385 22.326L11.0485 23.316L10.0585 22.326ZM10.767 25.9515L11.757 24.9615L12.747 25.9515L11.757 26.9415L10.767 25.9515ZM2.419 29.1205L3.409 28.1305L4.399 29.1205L3.409 30.1105L2.419 29.1205ZM7.235 8.664L7.9775 7.9215L8.72 8.664L7.9775 9.4065L7.235 8.664ZM13.526 13.9465L14.2685 13.204L15.011 13.9465L14.2685 14.689L13.526 13.9465ZM20.2875 13.9775L21.03 13.235L21.7725 13.9775L21.03 14.72L20.2875 13.9775ZM6.968 18.082L7.7105 17.3395L8.453 18.082L7.7105 18.8245L6.968 18.082ZM3.93 21.05L4.6725 20.3075L5.415 21.0495L4.6725 21.792L3.93 21.05ZM2.765 27.2425L3.5075 26.5L4.25 27.2425L3.5075 27.985L2.765 27.2425ZM9.188 27.643L9.9305 26.9005L10.673 27.6435L9.9305 28.3855L9.188 27.643ZM15.639 24.173L16.3815 23.4305L17.124 24.173L16.3815 24.9155L15.639 24.173ZM18.771 25.448L19.5135 24.7055L20.256 25.448L19.5135 26.19L18.771 25.448ZM22.938 22.585L23.6805 21.843L24.423 22.5855L23.6805 23.328L22.938 22.585Z" fill="#FFAB41"/>
</svg>
