<svg width="32" height="32" viewBox="0 0 32 32" fill="none" xmlns="http://www.w3.org/2000/svg">
<path d="M25 22.5C28 18.4 2.25 17.4 2.25 17.4C2.25 17.4 1.65 18.25 2.1 18.9C2.4 19.35 2.65 19.55 2.5 20C2.35 20.5 2.9 21 3 21.5C3.15 22.3 2.7 22.7 3.65 23.15C4 23.3 5.85 23.95 5.95 23.15C6.25 23.85 6.85 24.5 7.55 24.8C8.25 25.15 9.15 25.2 9.8 25.35C10.15 26.15 10.65 25.8 11.2 26.2C11.8 26.65 12.7 27.05 13.45 26.9C14.1 26.8 14.05 26.45 14.75 27C14.7 27.8 15.45 27.45 16 27.65C16.5 27.8 18.6 27.8 18.9 27.9C19.2 28.05 18.65 28.7 19.1 28.95C19.85 29.35 20.75 27.55 21.1 27.25C21.05 27.55 20.9 28.9 21.6 28.7C22.5 28.45 22.25 27.15 23 26.9C23.85 26.55 24.4 26.05 24.6 25.15C24.7 24.8 24.7 24.45 24.7 24.15C25.25 23.95 25.3 22.8 25 22.5Z" fill="#F7F2DF"/>
<path d="M13.85 25.75C13 25.3 12.2 25.2 12 25.5C11.8 25.8 12.35 26.45 13.15 26.9C14 27.35 14.8 27.45 15 27.15C15.25 26.8 14.7 26.2 13.85 25.75ZM6 22.75C5.15 22.35 4.3 22.25 4.15 22.6C3.95 22.9 4.5 23.5 5.4 23.95C6.25 24.35 7.1 24.45 7.25 24.1C7.4 23.75 6.85 23.15 6 22.75ZM9.3 24.3C8.45 23.9 7.6 23.8 7.45 24.15C7.3 24.5 7.85 25.1 8.7 25.5C9.55 25.9 10.4 26 10.55 25.65C10.7 25.3 10.15 24.7 9.3 24.3ZM19.35 26.25C19.45 26 19.5 25.8 19.4 25.65C19.15 25.35 18.35 25.55 17.6 26.1C16.85 26.65 16.45 27.35 16.7 27.65C16.8 27.8 17.05 27.8 17.35 27.75C17.15 28.1 17.1 28.4 17.25 28.55C17.5 28.85 18.3 28.55 19 27.95C19.7 27.35 20.05 26.6 19.8 26.35C19.65 26.25 19.5 26.2 19.35 26.25ZM16.65 25.05C16.65 25.1 16.7 25.15 16.7 25.15C16.95 25.45 17.75 25.25 18.5 24.7C19.25 24.15 19.65 23.45 19.4 23.15C19.15 22.85 18.35 23.05 17.6 23.6L17.45 23.75C17.45 23.65 17.45 23.55 17.35 23.5C17.2 23.3 16.8 23.35 16.35 23.6C16.2 23.6 16 23.55 15.85 23.55C14.9 23.5 14.1 23.8 14.1 24.15C14.1 24.4 14.45 24.65 15 24.75C14.75 25.15 14.65 25.5 14.85 25.65C15.1 25.95 15.9 25.65 16.6 25.05H16.65ZM22.25 24C21.9 23.85 21.3 24.4 20.9 25.2C20.65 25.7 20.5 26.95 20.85 27C21.25 27 21.8 26.6 22.2 25.8C22.6 24.95 22.6 24.15 22.25 24ZM24.75 21C24.4 20.85 23.8 21.4 23.4 22.2C23 23.05 23 23.85 23.35 24C23.7 24.15 24.3 23.6 24.7 22.8C25.1 21.95 25.1 21.15 24.75 21ZM7 22.25C6.85 22.6 7.4 23.2 8.25 23.6C9.1 24 9.95 24.1 10.1 23.75C10.25 23.4 9.7 22.8 8.85 22.4C8.05 22 7.2 21.95 7 22.25ZM5 20.6C4.95 19.7 4.6 18.95 4.2 19C3.8 19 3.55 19.75 3.6 20.7C3.65 21.65 4 22.35 4.4 22.3C4.75 22.25 5.05 21.5 5 20.6ZM7.7 21.3C8.25 20.55 8.45 19.8 8.15 19.55C7.85 19.35 7.1 19.75 6.55 20.5C6 21.25 5.8 22 6.1 22.25C6.45 22.45 7.15 22 7.7 21.3ZM14.45 23.2C14.45 22.85 13.7 22.5 12.75 22.45C11.8 22.4 11 22.7 11 23.05C11 23.4 11.75 23.75 12.7 23.8C13.65 23.85 14.45 23.6 14.45 23.2Z" fill="#E8E1D6"/>
<path d="M6.7 6.85H19.4V11.8H6.7V6.85Z" fill="#3F4237"/>
<path d="M19.1 10.55C20.35 12.9 17.9 15.7 13.05 15.7C8.25 15.7 5.8 12.9 7 10.55C7.9 8.85 10.5 7.8 13.05 7.8C15.6 7.85 18.2 8.9 19.1 10.55Z" fill="#3F4237"/>
<path d="M19.1 5.7C20.35 8.1 17.9 10.85 13.05 10.85C8.25 10.85 5.8 8.05 7 5.7C7.9 4.05 10.5 3 13.05 3C15.6 3 18.2 4.05 19.1 5.7Z" fill="#8CC63E"/>
<path d="M18.55 5.7C19.55 7.8 17.25 10.2 13.05 10.2C8.85 10.2 6.55 7.8 7.55 5.7C8.3 4.15 10.65 3.15 13.05 3.15C15.45 3.15 17.8 4.15 18.55 5.7Z" fill="#FFEEE2"/>
<path d="M15.8 5.95C16.05 6.9 14.8 7.85 13.05 7.85C11.3 7.85 10.1 6.95 10.3 5.95C10.5 5.1 11.7 4.55 13.05 4.55C14.4 4.55 15.6 5.1 15.8 5.95Z" fill="#FF5555"/>
<path d="M18.3 10.7H31V15.65H18.3V10.7Z" fill="#3F4237"/>
<path d="M30.7 14.4C31.95 16.75 29.5 19.55 24.65 19.55C19.85 19.55 17.4 16.75 18.6 14.4C19.5 12.7 22.1 11.65 24.65 11.65C27.2 11.65 29.8 12.75 30.7 14.4Z" fill="#3F4237"/>
<path d="M30.7 9.55C31.95 11.9 29.5 14.7 24.65 14.7C19.85 14.7 17.4 11.9 18.6 9.55C19.5 7.85 22.1 6.8 24.65 6.8C27.2 6.8 29.8 7.9 30.7 9.55Z" fill="#8CC63E"/>
<path d="M30.15 9.55C31.15 11.65 28.85 14.05 24.65 14.05C20.45 14.05 18.15 11.65 19.15 9.55C19.9 8 22.25 7 24.65 7C27 7.05 29.4 8 30.15 9.55Z" fill="#FFEEE2"/>
<path d="M27.4 9.8C27.65 10.75 26.4 11.7 24.65 11.7C22.9 11.7 21.7 10.8 21.9 9.8C22.1 8.95 23.3 8.4 24.65 8.4C26 8.4 27.2 8.95 27.4 9.8Z" fill="#FF5555"/>
<path d="M0.999999 15.6C0.949999 16.7 1.75 18.15 2.9 18.85C4.05 19.55 21.1 26.1 22 25.15C22.85 24.2 18.65 18.8 16.3 17.8C10 15.1 0.999999 15.6 0.999999 15.6Z" fill="#EC6430"/>
<path d="M21.75 23.2C21.7 23.75 21.8 25.3 22 25.2C23.1 24.4 26.15 20.5 24.75 17.35L21.75 23.2Z" fill="#E8491F"/>
<path d="M1 15.6C1 15.6 3.8 12.1 4.85 11.7C7.8 10.65 7.9 10.7 10.1 11.2C12.35 11.7 22.4 14.2 24.7 17.3C25.3 18.1 22.35 23.4 21.7 23.8C21.1 24.1 17.6 23.1 12.9 20.05C7.55 16.6 2.15 15.9 1 15.6Z" fill="#F3813B"/>
<path d="M19.15 22.75C18.9 22.6 18.6 22.45 18.35 22.3C18.2 20.65 18.8 18.75 18.7 17.1C18.35 18.6 17.5 20.1 17.1 21.6C17 21.55 16.85 21.45 16.75 21.4C15.8 20.8 14.8 20.25 13.85 19.65C14.5 17.7 14.9 15.5 13.95 13.6C14.4 15.5 13.65 17.35 12.7 19C12.45 18.85 12.2 18.7 11.9 18.55C11.05 18.1 10.15 17.7 9.25 17.3C8.85 15.6 10.35 13.5 8.8 12.05C9.7 13.5 8.45 15.2 8.05 16.8C7.6 16.65 7.1 16.45 6.65 16.35C4.8 15.85 2.9 15.5 1 15.6C2.8 16.1 4.55 16.75 6.25 17.45C7.95 18.2 9.55 19 11.2 19.85C12.85 20.7 14.5 21.6 16.2 22.35C17.05 22.75 17.95 23.1 18.85 23.35C19.75 23.6 20.75 23.8 21.7 23.7C20.8 23.55 19.95 23.2 19.15 22.75Z" fill="#F4A24E"/>
</svg>
