<svg width="32" height="32" viewBox="0 0 32 32" fill="none" xmlns="http://www.w3.org/2000/svg">
<path d="M8.2 30.95C5.15 30.95 2.2 30.95 1.05 15.55C-0.5 -5.45 27.1 2.2 27.1 14.3C27.1 20.95 8.2 30.95 8.2 30.95Z" fill="#D3976E"/>
<path opacity="0.5" d="M1.8 15.55C1.15 6.55 5.8 2.85 11.4 2.45V2.4C5.5 2.5 0.350004 6.15 1.05 15.55C2.1 29.8 4.75 30.95 7.5 30.95C4.95 30.5 2.75 28.55 1.8 15.55Z" fill="white"/>
<path d="M9.65 12.75L2.15 16.05L1.1 18.5L2.45 19.3L1.5 21.45L2.25 21.9L1.2 24.15L2.85 25.15L1.9 27.3L3.85 28.5L3.5 29.3L5.75 30.65L6.2 29.65L7.3 30.9L9.1 30.45L14.95 19.2L9.65 12.75Z" fill="#594640"/>
<path d="M11.5 19.5L13 17.5L1.85 16.05L1.05 17.85L2.7 18.85L3.2 17.75L4.05 18.25L3.4 19.65L2.25 18.95L1.45 20.75L3.1 21.7L3.75 20.2L4.85 20.85L4.8 21L5.8 21.6L5.5 21.9L3.95 21L3.25 22.5L1.9 21.7L1.1 23.5L2.75 24.45L3.4 23L4.75 23.8L5.15 22.85L5.5 23.25L5 24.4L4.2 23.95L3.55 25.35L2.6 24.75L1.8 26.55L3.45 27.55L4.1 26.15L5.05 26.75L5.2 26.4L5.7 27L5.4 27.5L4.25 26.8L3.45 28.6L5.1 29.55L5.8 28L7 29.7L8.1 28.45L9 29.45L10.3 28L9 26.6L7.9 27.85L7.5 27.45L7.75 26.95L8.9 25.6L9.5 26.3L10.8 24.85L9.5 23.35L8.3 24.75L7.7 24.05L6.7 25.15L7.35 23.7L6.75 23.35L7.1 22.95L7.4 23.1L8.25 24.05L9.55 22.6L8.25 21.15L8.15 21.25L7.7 21L8.3 20.35L9.15 21.3L9 21.45L10.15 22.75L9.9 23.05L11.2 24.5L12.5 23.05L11.5 19.5Z" fill="#89664C"/>
<path d="M4.8 19.05L3.7 18.35L3.1 19.6L4.25 20.3L4.8 19.05ZM7 18.4L7.35 17.65L6.65 17.2L6.25 18L7 18.4ZM5.3 21.1L4.95 21.9L5.65 22.35L6 21.55L5.3 21.1ZM5.55 22.85L5.2 23.6L5.9 24.05L6.25 23.25L5.55 22.85ZM6.6 20.75L7.3 21.15L7.65 20.4L6.95 19.95L6.6 20.75ZM2.25 22.35L1.55 21.95L1.2 22.7L1.9 23.15L2.25 22.35ZM2.35 25.35L2 26.15L2.7 26.55L3.05 25.8L2.35 25.35ZM3.7 28.2L4.4 28.6L4.75 27.8L4.05 27.4L3.7 28.2ZM3.65 23.15L4 22.35L3.3 21.95L2.95 22.7L3.65 23.15ZM3.8 23.7L3.2 24.95L4.35 25.65L4.9 24.4L3.8 23.7ZM5.4 26.5L6.1 26.9L6.45 26.15L5.75 25.7L5.4 26.5ZM6.05 28.35L6.75 28.75L7.1 28L6.4 27.55L6.05 28.35ZM9.1 17.6L8.55 16.95L8 17.6L8.55 18.2L9.1 17.6ZM9.65 19.55L8.8 18.55L7.9 19.55L8.8 20.55L9.65 19.55ZM9.9 20.45L9.35 21.1L9.9 21.7L10.45 21.1L9.9 20.45ZM10.2 22.7L10.75 23.35L11.3 22.7L10.75 22.05L10.2 22.7ZM8.25 23.55L8.8 24.2L9.35 23.55L8.8 22.9L8.25 23.55ZM8.4 26.7L8.95 27.3L9.5 26.7L8.95 26.05L8.4 26.7ZM7.45 28.6L8 29.25L8.55 28.6L8 27.95L7.45 28.6Z" fill="#D3976E"/>
<path d="M22.85 4.4L18.1 1.25L17.45 1L17.65 2.95L12 1.8L11.4 1.95L5.5 6L3.15 12L1.5 12.5V13.5L5 12.5L3.35 14.1L3.85 16.3L12.85 16.9L22.85 4.4Z" fill="#FFEC40"/>
<path d="M11.25 2.3C10.15 2.1 9.25 3.3 8.2 3.65C7.1 4.05 9.1 5.55 9.7 5.55C11.4 5.55 14.6 2.95 11.25 2.3ZM5.75 8.55C6.15 7.4 6 6 4.45 7C3.15 7.85 4.55 9.15 2.95 9.9C1.4 10.6 2.45 12.6 3.8 12C5 11.55 5.4 9.7 5.75 8.55ZM5.75 8.55C5.75 8.6 5.75 8.6 5.75 8.55V8.55ZM12.35 15.65C12.45 15.8 12.6 15.9 12.35 15.65C10.5 13.85 7.8 18.15 8.4 18.95C10.75 22.05 13.45 16.8 12.35 15.65Z" fill="#83BF4F"/>
<path d="M6.65 12.75L5.35 15.8L8.65 17L10.5 13.65L6.65 12.75Z" fill="#ED4C5C"/>
<path d="M4.85 12.15L6.55 13.5L9.4 11.5L7.55 10L4.85 12.15ZM10.45 9.75L12.75 11.5L15.75 9.7L14.2 7.6L10.45 9.75ZM7.95 5.75L8.15 8.15L11.4 6.65L11.25 4.95L9.75 4.1L7.95 5.75ZM14.7 1.6L13.85 4.15L17.5 4.5L17.3 2.05L14.7 1.6ZM18.5 1.5L18.7 4L22.05 3.65L22.45 2.1L18.5 1.5Z" fill="#ED4C5C"/>
<path d="M17.6 5.85C17.05 5.75 18.95 6.2 17.6 5.85V5.85Z" fill="#83BF4F"/>
<path d="M18 6C17.55 5.65 16.65 7.1 16.15 7.4C15.55 7.8 10.8 8.95 14.9 10C16.2 10.35 19 6.8 18 6ZM20.15 4.85C19.75 4.6 20.55 5.1 20.15 4.85V4.85ZM21.65 2.85C20.8 4 20.95 1.55 19.7 2.65C18.95 3.3 19.35 4.4 20.15 4.85C20.85 5.3 23.3 5.05 23.45 3.9C23.55 3.15 22.25 2.05 21.65 2.85ZM3.5 13C2.8 13 1.35 14.85 1.35 14.85C0.0499983 16.25 2.75 16.25 2.8 16.5C2.4 16.8 2 17.1 1.55 17.35C1.55 18.35 3.65 17.25 3.5 17.35C2.3 19.4 7.25 17 7.55 16.8C9.25 15.75 6.5 13 3.5 13ZM9 10.95C8.3 10.9 9.4 10.95 9 10.95V10.95Z" fill="#83BF4F"/>
<path d="M10.2 8.15C8.5 5 8.3 8.15 8 8.5C7.8 8.7 5.5 8.5 6.55 9.75C7 10.3 8.35 11.1 9.05 10.9C10.5 10.5 10.55 8.8 10.2 8.15Z" fill="#83BF4F"/>
<path d="M10.35 12L4.9 12.7L3.5 13.75L4.1 14.25L9.5 12.5L10.85 12.4L10.35 12ZM14.5 6.35L12.15 6.15L7 7.85L7.8 8.5L12.05 7.15L14.55 6.9L14.5 6.35ZM11.55 10.6L11 10.65L12.05 13.2L13.6 13.5L14 12.6L13.1 12.25L11.55 10.6ZM10.75 13.85L11.85 16.95L11.05 17.5L10.15 14.75L10.75 13.85ZM19.3 3.65L18.25 3.35L17.45 1L16.8 1.05L17.6 3.8L18.95 4.35L19.3 3.65ZM14.8 2.65L11.4 1.95L11.05 2.5L14.65 3.45L14.8 2.65Z" fill="#FFFFD4"/>
<path d="M8.2 30.95C8.2 30.95 10.3 30.95 11.5 22.85C12.75 14.65 18.25 3.6 26.8 3.6C29.75 3.6 31.8 5.55 30.65 16.2C30.5 18.05 10.8 30.95 8.2 30.95Z" fill="#FBBF67"/>
<path d="M26.85 3.1C16 3.1 12.65 15.4 11.5 22.85C10.25 30.95 6.95 30.95 6.95 30.95C6.95 30.95 9.05 31.2 9.65 30.7C10.55 29.95 11.6 28 12.25 23.7C13.4 16.2 17.4 3.85 27.1 3.85C29.85 3.85 30.75 7.8 30.75 7.8C30.75 7.8 30.3 3.1 26.85 3.1Z" fill="#FDDFB3"/>
<path d="M19.6 20.4L20.1 19.9L20.6 20.4L20.1 20.95L19.6 20.4ZM20.25 13.4L20.75 12.85L21.25 13.4L20.75 13.95L20.25 13.4ZM28.05 13.4L28.55 12.85L29.05 13.4L28.55 13.95L28.05 13.4ZM27.1 7.9L27.6 7.35L28.1 7.9L27.6 8.4L27.1 7.9Z" fill="#D3976E"/>
<path d="M24.15 16.7L23.65 17.2L24.15 17.75L24.65 17.2L24.15 16.7ZM25.35 10.4L24.85 10.9L25.35 11.45L25.85 10.9L25.35 10.4ZM21.5 8.5L21 9.05L21.5 9.6L22 9.05L21.5 8.5ZM16.75 16.4L16.25 16.95L16.75 17.45L17.25 16.95L16.75 16.4ZM15.6 23.2L15.1 23.75L15.6 24.25L16.1 23.75L15.6 23.2Z" fill="#FDDFB3"/>
</svg>
